<?xml version="1.0" encoding="UTF-8"?>
<svg version="1.1" xmlns="http://www.w3.org/2000/svg" width="1080" height="1080">
<path d="M0 0 C356.4 0 712.8 0 1080 0 C1080 356.4 1080 712.8 1080 1080 C723.6 1080 367.2 1080 0 1080 C0 723.6 0 367.2 0 0 Z " fill="#2563EB" transform="translate(0,0)"/>
<path d="M0 0 C0 24.09 0 48.18 0 73 C-9.9 76.96 -19.8 80.92 -30 85 C-36.93539622 87.82000867 -43.86977597 90.64133726 -50.79800415 93.47872925 C-56.05031628 95.62942376 -61.30447577 97.77559674 -66.55859375 99.921875 C-68.14295479 100.56913795 -68.14295479 100.56913795 -69.75932312 101.22947693 C-84.001442 107.04552955 -98.26292485 112.81356145 -112.52755737 118.5741272 C-118.83800204 121.12350124 -125.14486726 123.68161232 -131.4506073 126.24259949 C-136.27960678 128.20329121 -141.10974203 130.16117521 -145.94003296 132.11868286 C-148.30414967 133.07749854 -150.66778123 134.03751135 -153.03091431 134.99874878 C-156.32141356 136.33698144 -159.61362056 137.67092511 -162.90625 139.00390625 C-164.39677132 139.61191574 -164.39677132 139.61191574 -165.91740417 140.23220825 C-166.82444595 140.59845306 -167.73148773 140.96469788 -168.66601562 141.34204102 C-169.85499451 141.82472191 -169.85499451 141.82472191 -171.06799316 142.31715393 C-173 143 -173 143 -175 143 C-174.82778143 144.94573369 -174.82778143 144.94573369 -174 147 C-172.12807405 148.28462392 -172.12807405 148.28462392 -169.70703125 149.15625 C-168.78219437 149.53264618 -167.85735748 149.90904236 -166.90449524 150.29684448 C-165.3739576 150.89240646 -165.3739576 150.89240646 -163.8125 151.5 C-162.74907883 151.92805939 -161.68565765 152.35611877 -160.5900116 152.79714966 C-157.06550497 154.21228874 -153.53285572 155.60585032 -150 157 C-147.53359259 157.98649746 -145.06776064 158.9743035 -142.6027832 159.96435547 C-138.16881767 161.74376488 -133.73301251 163.51842011 -129.29457951 165.28665733 C-118.89439411 169.43075729 -108.52969031 173.66016956 -98.16983032 177.90390015 C-93.17477112 179.94910152 -88.17707056 181.98782892 -83.1796875 184.02734375 C-81.17414264 184.84616444 -79.16860885 185.66501227 -77.16308594 186.48388672 C-70.71574701 189.11617797 -64.26805193 191.74759621 -57.8203125 194.37890625 C-55.62084921 195.27652897 -53.42138631 196.17415266 -51.22192383 197.07177734 C-48.07931128 198.35430868 -44.93669102 199.63682111 -41.79403687 200.91925049 C-38.9108329 202.09581978 -36.02767779 203.27250873 -33.14453125 204.44921875 C-32.34197906 204.77668594 -31.53942688 205.10415314 -30.71255493 205.44154358 C-20.47237052 209.62118895 -10.23686027 213.81219353 0 218 C0 241.76 0 265.52 0 290 C-4.73343802 289.0533124 -8.68620778 287.54180928 -13.05078125 285.59765625 C-13.84460205 285.24866776 -14.63842285 284.89967926 -15.45629883 284.54011536 C-18.07731153 283.3860007 -20.69493976 282.22442133 -23.3125 281.0625 C-25.1570254 280.24793835 -27.00167252 279.43365226 -28.84643555 278.61962891 C-43.0385348 272.34839664 -57.19193408 265.9911906 -71.33447266 259.60913086 C-82.10469432 254.74897023 -92.8874675 249.91855868 -103.6875 245.125 C-104.77402863 244.64271942 -104.77402863 244.64271942 -105.88250732 244.1506958 C-108.87384179 242.82311497 -111.86530974 241.49583562 -114.85696411 240.16897583 C-123.60288303 236.28991289 -132.34536438 232.40312029 -141.0880127 228.51669312 C-145.86068553 226.39507923 -150.63345137 224.27367462 -155.40625 222.15234375 C-156.36114319 221.72792496 -157.31603638 221.30350616 -158.29986572 220.8662262 C-164.08529281 218.29494895 -169.87115324 215.72464957 -175.65736389 213.15513611 C-180.41755032 211.0412416 -185.17756916 208.92696994 -189.9375 206.8125 C-190.86345978 206.40117828 -191.78941956 205.98985657 -192.74343872 205.56607056 C-207.89558087 198.83427295 -223.03500844 192.07435429 -238.16381836 185.2902832 C-238.91292984 184.9545932 -239.66204132 184.6189032 -240.43385315 184.27304077 C-241.81008315 183.65628942 -243.18611022 183.03908494 -244.56187439 182.42129517 C-248.69147715 180.57097154 -252.83951876 178.78306339 -257 177 C-257 156.21 -257 135.42 -257 114 C-238.54050506 104.77025253 -238.54050506 104.77025253 -229.08422852 100.62597656 C-228.39160919 100.3217981 -227.69898987 100.01761963 -226.98538208 99.70422363 C-225.90980545 99.23188293 -225.90980545 99.23188293 -224.8125 98.75 C-223.26144876 98.06520569 -221.71059226 97.37997014 -220.15991211 96.69433594 C-216.84359164 95.2283276 -213.52651715 93.76404396 -210.20898438 92.30078125 C-202.09518139 88.71965375 -193.99314705 85.11201755 -185.88973999 81.50744629 C-181.11574567 79.38415946 -176.34103651 77.26248128 -171.56640625 75.140625 C-169.63427399 74.28190859 -167.70214508 73.42318463 -165.77001953 72.56445312 C-161.95849609 70.87044271 -158.14697266 69.17643229 -154.33544922 67.48242188 C-153.40694153 67.06975067 -152.47843384 66.65707947 -151.52178955 66.23190308 C-149.65065847 65.40029152 -147.77952403 64.56868752 -145.90838623 63.73709106 C-141.23490646 61.6600285 -136.56148524 59.58283441 -131.88818359 57.50537109 C-123.40460828 53.73424793 -114.92059922 49.96411578 -106.43444824 46.1987915 C-88.07690954 38.05342208 -69.72608095 29.89454651 -51.4152832 21.64453125 C-48.91443321 20.51776674 -46.41331435 19.39160126 -43.91210938 18.265625 C-42.30989207 17.54427919 -40.70767847 16.82292517 -39.10546875 16.1015625 C-38.33298798 15.75377747 -37.5605072 15.40599243 -36.76461792 15.04766846 C-33.07593743 13.38658429 -29.387974 11.72394748 -25.70166016 10.05761719 C-21.86627494 8.32410528 -18.02710718 6.59913984 -14.1875 4.875 C-13.07810059 4.37162109 -11.96870117 3.86824219 -10.82568359 3.34960938 C-9.8248877 2.90166016 -8.8240918 2.45371094 -7.79296875 1.9921875 C-6.9321167 1.60401855 -6.07126465 1.21584961 -5.18432617 0.81591797 C-3 0 -3 0 0 0 Z " fill="#FEFEFE" transform="translate(390,433)"/>
<path d="M0 0 C10.11900282 3.37300094 10.11900282 3.37300094 14.95703125 5.57421875 C16.04951172 6.06801025 17.14199219 6.56180176 18.26757812 7.07055664 C19.43740234 7.60414795 20.60722656 8.13773926 21.8125 8.6875 C23.7475775 9.56351227 25.68344866 10.43775487 27.61935425 11.31193542 C28.98165229 11.92718766 30.3437295 12.54292908 31.70559692 13.15913391 C39.45410853 16.66359783 47.22681722 20.11319976 55 23.5625 C56.50832674 24.23228203 58.01662714 24.90212341 59.52490234 25.57202148 C62.68334438 26.97480451 65.84188562 28.37736383 69.00048828 29.77978516 C74.23911605 32.10595068 79.4770482 34.43368004 84.71484375 36.76171875 C85.6285524 37.16783386 86.54226105 37.57394897 87.48365784 37.99237061 C90.30161501 39.24489173 93.11955978 40.49744074 95.9375 41.75 C106.51043278 46.44960968 117.08336922 51.14920852 127.65794373 55.84512329 C147.63529414 64.71661367 167.60658868 73.60094849 187.5534668 82.54077148 C196.36588621 86.48873678 205.18683503 90.41689556 214.015625 94.328125 C215.03450806 94.77978027 216.05339111 95.23143555 217.10314941 95.69677734 C222.08576253 97.90547289 227.06931258 100.11199845 232.0546875 102.31445312 C233.87504768 103.12098614 235.69536238 103.92762182 237.515625 104.734375 C238.73357758 105.27085663 238.73357758 105.27085663 239.97613525 105.81817627 C245.75528339 108.38374809 251.3285517 111.16427585 257 114 C257 134.79 257 155.58 257 177 C243.20117187 183.1328125 229.40234375 189.265625 215.60351562 195.3984375 C214.70973206 195.7956752 213.81594849 196.1929129 212.89508057 196.60218811 C211.0716366 197.41260651 209.24819095 198.22302111 207.42474365 199.03343201 C202.73592235 201.11733248 198.04713188 203.20130226 193.35839844 205.28540039 C184.6867863 209.1397722 176.01497351 212.99368888 167.34205627 216.84512329 C148.88487597 225.04154044 130.4311078 233.24509395 112 241.5 C96.45350613 248.46294806 80.89384826 255.39594023 65.32275391 262.30371094 C56.35982189 266.28057368 47.40031349 270.26454504 38.45320129 274.27690125 C34.26984662 276.15255506 30.08470945 278.02421249 25.89944458 279.89559937 C23.89323938 280.79401411 21.88791826 281.6944058 19.8835144 282.59683228 C17.10944448 283.84559035 14.33243578 285.08757551 11.5546875 286.328125 C10.3158506 286.88904091 10.3158506 286.88904091 9.05198669 287.46128845 C8.29474808 287.79794022 7.53750946 288.13459198 6.75732422 288.48144531 C6.1002951 288.77641907 5.44326599 289.07139282 4.7663269 289.37530518 C3 290 3 290 0 290 C0 266.24 0 242.48 0 218 C21.49590319 208.99134348 43.03687288 200.12171388 64.65332031 191.4074707 C81.09145923 184.77975971 97.50834703 178.10110872 113.90698242 171.3762207 C124.04337114 167.22309254 134.19545433 163.1183217 144.38671875 159.1015625 C147.32020289 157.93888406 150.25323706 156.77507803 153.18612671 155.61090088 C155.04882135 154.87551982 156.91373635 154.14573602 158.78091431 153.42181396 C161.33865807 152.43008964 163.88852184 151.42024715 166.4375 150.40625 C167.19532272 150.11859772 167.95314545 149.83094543 168.7339325 149.53457642 C171.03804045 148.64688007 171.03804045 148.64688007 174 147 C174.74223104 144.95590314 174.74223104 144.95590314 175 143 C174.47390137 142.86319824 173.94780273 142.72639648 173.40576172 142.58544922 C165.53653326 140.39056369 158.07889771 137.27552815 150.55316162 134.13717651 C146.25349575 132.3448655 141.9466697 130.56988689 137.640625 128.79296875 C136.71623627 128.41110916 135.79184753 128.02924957 134.83944702 127.63581848 C123.21085178 122.83834813 111.54211937 118.1402973 99.875 113.4375 C97.63287163 112.53325829 95.39076547 111.62896152 93.14868164 110.72460938 C89.85148466 109.39468843 86.55427753 108.06479287 83.25697327 106.73513794 C73.68780807 102.87578095 64.12382787 99.00372713 54.5625 95.125 C53.83807709 94.83115417 53.11365417 94.53730835 52.36727905 94.23455811 C48.76006628 92.77132984 45.15295621 91.30784861 41.54589844 89.84423828 C34.93238546 87.16091799 28.31795512 84.47986029 21.70361328 81.79858398 C14.46901484 78.86587233 7.23451708 75.93291233 0 73 C0 48.91 0 24.82 0 0 Z " fill="#FEFEFE" transform="translate(690,433)"/>
<path d="M0 0 C21.78 0 43.56 0 66 0 C65.39328356 4.24701511 64.82209578 8.09343475 63.80078125 12.1953125 C63.56415771 13.14760742 63.32753418 14.09990234 63.08374023 15.08105469 C62.82923096 16.08555664 62.57472168 17.09005859 62.3125 18.125 C62.04703369 19.18106445 61.78156738 20.23712891 61.50805664 21.32519531 C59.54725225 29.04358713 57.4103559 36.69980096 55.1809082 44.34423828 C53.48334179 50.19948367 51.94586198 56.07788395 50.5 62 C48.87453478 68.65157478 47.10628614 75.23963685 45.1875 81.8125 C42.60695522 90.66201221 40.27768789 99.56871894 38 108.5 C35.50597427 118.27958609 32.90651541 128.01438337 30.078125 137.703125 C28.41481115 143.43837659 26.91766581 149.19943113 25.5 155 C23.87435725 161.65153427 22.10628839 168.23962913 20.1875 174.8125 C17.60695292 183.6620201 15.27790981 192.56877198 13 201.5 C10.57108963 211.02066112 8.04865764 220.49854368 5.2890625 229.9296875 C3.02520472 237.74364821 1.01099543 245.6182562 -1 253.5 C-3.42914427 263.02060483 -5.95133978 272.49853486 -8.7109375 281.9296875 C-11.16897552 290.41388326 -13.33477719 298.97099496 -15.51748657 307.52896118 C-17.8414152 316.63173797 -20.28917707 325.68473422 -22.921875 334.703125 C-24.58518885 340.43837659 -26.08233419 346.19943113 -27.5 352 C-29.12564275 358.65153427 -30.89371161 365.23962913 -32.8125 371.8125 C-35.39304505 380.66201315 -37.72228907 389.56872408 -40 398.5 C-42.49377438 408.2782167 -45.05243134 418.02709405 -47.921875 427.703125 C-50.19456394 435.42756181 -52.03908334 443.15633335 -54 451 C-75.78 451 -97.56 451 -120 451 C-118.72722078 443.3633247 -117.41821277 436.24464481 -115.3125 428.875 C-114.77541809 426.95199697 -114.23898736 425.02881198 -113.703125 423.10546875 C-113.28450195 421.61152588 -113.28450195 421.61152588 -112.85742188 420.08740234 C-111.38833364 414.79751343 -109.979798 409.49144996 -108.5625 404.1875 C-106.25216613 395.56429695 -103.8709189 386.96420931 -101.4375 378.375 C-98.81632424 369.11380379 -96.42300258 359.81288454 -94.13085938 350.46533203 C-92.53261968 343.99417519 -90.75997037 337.60563033 -88.82373047 331.22851562 C-87.20934518 325.85845132 -85.83061694 320.4467277 -84.5 315 C-83.00128374 308.86517701 -81.39733506 302.79283058 -79.5625 296.75 C-77.48890498 289.90500379 -75.71022587 283.00675684 -74 276.0625 C-72.09743159 268.33783143 -70.12210372 260.64875462 -67.96044922 252.99267578 C-66.12559846 246.48913315 -64.37168103 239.96522824 -62.625 233.4375 C-60.29399092 224.73083175 -57.89511112 216.04672029 -55.4375 207.375 C-52.81623544 198.11383031 -50.42300177 188.81288124 -48.13085938 179.46533203 C-46.53261968 172.99417519 -44.75997037 166.60563033 -42.82373047 160.22851562 C-41.20934518 154.85845132 -39.83061694 149.4467277 -38.5 144 C-37.00128374 137.86517701 -35.39733506 131.79283058 -33.5625 125.75 C-31.48890498 118.90500379 -29.71022587 112.00675684 -28 105.0625 C-26.09743159 97.33783143 -24.12210372 89.64875462 -21.96044922 81.99267578 C-20.12559846 75.48913315 -18.37168103 68.96522824 -16.625 62.4375 C-14.05205669 52.82717114 -11.41393625 43.23786742 -8.66064453 33.67749023 C-5.48871649 22.51297046 -2.82012297 11.28049186 0 0 Z " fill="#FEFEFE" transform="translate(567,334)"/>
</svg>
